<?xml version="1.0" encoding="iso-8859-1"?>
<!-- Generator: Adobe Illustrator 16.0.0, SVG Export Plug-In . SVG Version: 6.00 Build 0)  -->
<!DOCTYPE svg PUBLIC "-//W3C//DTD SVG 1.1//EN" "http://www.w3.org/Graphics/SVG/1.1/DTD/svg11.dtd">
<svg version="1.1" id="Layer_1" xmlns="http://www.w3.org/2000/svg" xmlns:xlink="http://www.w3.org/1999/xlink" x="0px" y="0px"
	 width="25.26px" height="43px" viewBox="0 0 25.26 43" style="enable-background:new 0 0 25.26 43;" xml:space="preserve">
<g>
	<g>
		<path style="fill:#010101;" d="M14.385,19.348c-0.547,0.211-1.133,0.355-1.756,0.355s-1.207-0.145-1.758-0.355L5.859,31.148
			C5.732,31.453,5.9,31.703,6.23,31.703h2.799c0.33,0,0.666-0.262,0.744-0.582l0.672-3.418h4.377l0.664,3.355
			c0.078,0.32,0.414,0.582,0.742,0.582h2.805c0.328,0,0.492-0.25,0.359-0.551L14.385,19.348z M10.838,25.703l0.646-3.293
			c0.08-0.32,0.416-0.582,0.746-0.582h0.799c0.332,0,0.668,0.262,0.746,0.582l0.652,3.293H10.838z"/>
		<circle style="fill:#010101;" cx="12.628" cy="14.711" r="3.374"/>
	</g>
	<g>
		<path style="fill:#010101;" d="M18.775,14.711c0,1.25-0.383,2.414-1.027,3.387l1.305,1.562c1.062-1.375,1.723-3.078,1.723-4.949
			c0-1.855-0.648-3.547-1.699-4.918l-1.309,1.57C18.4,12.328,18.775,13.477,18.775,14.711z"/>
		<path style="fill:#010101;" d="M6.484,14.711c0-1.234,0.375-2.383,1.004-3.348L6.182,9.789c-1.049,1.375-1.697,3.066-1.697,4.922
			c0,1.871,0.658,3.574,1.723,4.949l1.305-1.562C6.865,17.125,6.484,15.961,6.484,14.711z"/>
	</g>
	<g>
		<path style="fill:#010101;" d="M23.26,14.711c0,2.633-1,5.02-2.594,6.879l1.297,1.555c2.023-2.242,3.297-5.18,3.297-8.434
			c0-3.242-1.266-6.176-3.281-8.414l-1.297,1.559C22.268,9.711,23.26,12.086,23.26,14.711z"/>
		<path style="fill:#010101;" d="M2,14.711c0-2.625,0.992-5,2.574-6.855L3.279,6.297C1.264,8.535,0,11.469,0,14.711
			c0,3.254,1.27,6.191,3.297,8.434l1.297-1.555C3,19.73,2,17.348,2,14.711z"/>
	</g>
</g>
</svg>
