<?xml version="1.0" encoding="iso-8859-1"?>
<!-- Generator: Adobe Illustrator 16.0.0, SVG Export Plug-In . SVG Version: 6.00 Build 0)  -->
<!DOCTYPE svg PUBLIC "-//W3C//DTD SVG 1.1//EN" "http://www.w3.org/Graphics/SVG/1.1/DTD/svg11.dtd">
<svg version="1.1" id="Layer_1" xmlns="http://www.w3.org/2000/svg" xmlns:xlink="http://www.w3.org/1999/xlink" x="0px" y="0px"
	 width="32px" height="43px" viewBox="0 0 32 43" style="enable-background:new 0 0 32 43;" xml:space="preserve">
<g>
	<g>
		<path style="fill:#010101;" d="M18.227,19.438c-0.695,0.266-1.438,0.447-2.227,0.447s-1.529-0.182-2.229-0.447l-6.35,14.863
			C7.264,34.688,7.475,35,7.895,35h3.545c0.42,0,0.844-0.328,0.943-0.734l0.852-4.305h5.543l0.84,4.227
			c0.102,0.406,0.523,0.734,0.945,0.734h3.547c0.418,0,0.625-0.316,0.461-0.695L18.227,19.438z M13.73,27.445l0.82-4.148
			c0.102-0.404,0.525-0.734,0.943-0.734h1.014c0.418,0,0.844,0.33,0.945,0.734l0.828,4.148H13.73z"/>
		<ellipse style="fill:#010101;" cx="15.999" cy="13.598" rx="4.274" ry="4.25"/>
	</g>
	<g>
		<path style="fill:#010101;" d="M23.781,13.598c0,1.574-0.477,3.041-1.297,4.266l1.656,1.969c1.344-1.732,2.18-3.877,2.18-6.234
			c0-2.336-0.824-4.467-2.148-6.193l-1.656,1.977C23.312,10.596,23.781,12.043,23.781,13.598z"/>
		<path style="fill:#010101;" d="M8.217,13.598c0-1.555,0.473-3.002,1.27-4.217L7.83,7.398c-1.326,1.732-2.148,3.863-2.148,6.199
			c0,2.357,0.834,4.502,2.184,6.234l1.652-1.969C8.697,16.639,8.217,15.172,8.217,13.598z"/>
	</g>
	<g>
		<path style="fill:#010101;" d="M29.465,13.598c0,3.316-1.266,6.322-3.285,8.664l1.645,1.957C30.391,21.396,32,17.695,32,13.598
			C32,9.514,30.398,5.818,27.844,3l-1.641,1.963C28.211,7.301,29.465,10.291,29.465,13.598z"/>
		<path style="fill:#010101;" d="M2.535,13.598c0-3.307,1.254-6.297,3.26-8.635L4.154,3C1.602,5.818,0,9.514,0,13.598
			c0,4.098,1.609,7.799,4.178,10.621l1.641-1.957C3.801,19.92,2.535,16.918,2.535,13.598z"/>
	</g>
</g>
</svg>
