<?xml version="1.0" encoding="iso-8859-1"?>
<!-- Generator: Adobe Illustrator 16.0.0, SVG Export Plug-In . SVG Version: 6.00 Build 0)  -->
<!DOCTYPE svg PUBLIC "-//W3C//DTD SVG 1.1//EN" "http://www.w3.org/Graphics/SVG/1.1/DTD/svg11.dtd">
<svg version="1.1" id="Layer_1" xmlns="http://www.w3.org/2000/svg" xmlns:xlink="http://www.w3.org/1999/xlink" x="0px" y="0px"
	 width="32.002px" height="43px" viewBox="0 0 32.002 43" style="enable-background:new 0 0 32.002 43;" xml:space="preserve">
<g>
	<path style="fill:#010101;" d="M21.174,16.98l5.688-9.664C24.01,4.658,20.209,3,16,3c-0.998,0-1.965,0.119-2.912,0.293
		L21.174,16.98z"/>
	<path style="fill:#010101;" d="M19.951,23h11.48c0.336-1.285,0.57-2.609,0.57-4c0-3.873-1.434-7.377-3.727-10.145L19.951,23z"/>
	<path style="fill:#010101;" d="M16.502,13l-5.41-9.152C6.592,5.307,2.953,8.646,1.188,13H16.502z"/>
	<path style="fill:#010101;" d="M15.633,25l5.393,9.117c4.445-1.484,8.039-4.801,9.789-9.117H15.633z"/>
	<path style="fill:#010101;" d="M12.105,15H0.566C0.232,16.285,0,17.609,0,19c0,3.891,1.445,7.41,3.756,10.188L12.105,15z"/>
	<path style="fill:#010101;" d="M10.918,20.961l-5.744,9.758C8.027,33.352,11.809,35,16,35c1.041,0,2.057-0.117,3.041-0.305
		L10.918,20.961z"/>
</g>
</svg>
