<?xml version="1.0" encoding="iso-8859-1"?>
<!-- Generator: Adobe Illustrator 16.0.0, SVG Export Plug-In . SVG Version: 6.00 Build 0)  -->
<!DOCTYPE svg PUBLIC "-//W3C//DTD SVG 1.1//EN" "http://www.w3.org/Graphics/SVG/1.1/DTD/svg11.dtd">
<svg version="1.1" id="Layer_1" xmlns="http://www.w3.org/2000/svg" xmlns:xlink="http://www.w3.org/1999/xlink" x="0px" y="0px"
	 width="32.002px" height="43px" viewBox="0 0 32.002 43" style="enable-background:new 0 0 32.002 43;" xml:space="preserve">
<g>
	<path style="fill:#010101;" d="M30.307,11.973l-9.969,9.973h11.367c0.176-0.961,0.297-1.938,0.297-2.945
		C32.002,16.467,31.357,14.102,30.307,11.973z"/>
	<path style="fill:#010101;" d="M21.057,18.24l8.199-8.199c-1.949-2.879-4.84-5.021-8.199-6.146V18.24z"/>
	<path style="fill:#010101;" d="M16.748,24.055l8.207,8.207c2.879-1.949,5.023-4.844,6.148-8.207H16.748z"/>
	<path style="fill:#010101;" d="M18.943,14.744V3.297C17.986,3.119,17.01,3,16,3c-2.555,0-4.938,0.654-7.08,1.721L18.943,14.744z"/>
	<path style="fill:#010101;" d="M13.057,23.352v11.352C14.014,34.883,14.992,35,16,35c2.533,0,4.893-0.641,7.018-1.688
		L13.057,23.352z"/>
	<path style="fill:#010101;" d="M10.943,19.773L2.75,27.965c1.949,2.875,4.838,5.016,8.193,6.141V19.773z"/>
	<path style="fill:#010101;" d="M0.297,16.057C0.119,17.014,0,17.992,0,19c0,2.539,0.645,4.906,1.695,7.035l9.979-9.979H0.297z"/>
	<path style="fill:#010101;" d="M6.996,5.781c-2.855,1.949-4.982,4.822-6.102,8.162h14.264L6.996,5.781z"/>
</g>
</svg>
