<?xml version="1.0" encoding="iso-8859-1"?>
<!-- Generator: Adobe Illustrator 16.0.0, SVG Export Plug-In . SVG Version: 6.00 Build 0)  -->
<!DOCTYPE svg PUBLIC "-//W3C//DTD SVG 1.1//EN" "http://www.w3.org/Graphics/SVG/1.1/DTD/svg11.dtd">
<svg version="1.1" id="Layer_1" xmlns="http://www.w3.org/2000/svg" xmlns:xlink="http://www.w3.org/1999/xlink" x="0px" y="0px"
	 width="32.002px" height="43px" viewBox="0 0 32.002 43" style="enable-background:new 0 0 32.002 43;" xml:space="preserve">
<path style="fill:#010101;" d="M29.846,27c1.367-2.355,2.156-5.078,2.156-8c0-8.836-7.164-16-16.002-16C7.164,3,0,10.164,0,19
	s7.164,16,16,16c4.416,0,8.416-1.789,11.314-4.688l-2.836-2.832C22.307,29.656,19.307,31,16,31C9.383,31,4,25.617,4,19S9.383,7,16,7
	c6.619,0,12.002,5.383,12.002,12c0,1.422-0.273,2.781-0.734,4.047L27.236,23h-3.234V11.043H16c-4.418,0-8,3.582-8,8s3.582,8,8,8
	c1.838,0,3.51-0.645,4.861-1.684C21.588,26.328,22.697,27,24.002,27H29.846z M20.002,17.008v2.035c0,2.207-1.797,4-4.002,4
	c-2.203,0-4-1.793-4-4s1.797-4,4-4h4.002V17.008z"/>
</svg>
