<?xml version="1.0" encoding="iso-8859-1"?>
<!-- Generator: Adobe Illustrator 16.0.0, SVG Export Plug-In . SVG Version: 6.00 Build 0)  -->
<!DOCTYPE svg PUBLIC "-//W3C//DTD SVG 1.1//EN" "http://www.w3.org/Graphics/SVG/1.1/DTD/svg11.dtd">
<svg version="1.1" id="Layer_1" xmlns="http://www.w3.org/2000/svg" xmlns:xlink="http://www.w3.org/1999/xlink" x="0px" y="0px"
	 width="16.002px" height="43px" viewBox="0 0 16.002 43" style="enable-background:new 0 0 16.002 43;" xml:space="preserve">
<g>
	<path style="fill:#010101;" d="M9.971,12c0,0.535-0.438,0.969-0.969,0.969c-0.539,0-0.969-0.434-0.969-0.969
		s0.43-0.969,0.969-0.969C9.533,11.031,9.971,11.465,9.971,12z"/>
	<path style="fill:#010101;" d="M14.002,3H2C0.895,3,0,3.895,0,5v22c0,4.418,3.582,8,8,8c4.416,0,8.002-3.582,8.002-8V5
		C16.002,3.895,15.104,3,14.002,3z M5.031,23c-0.535,0-0.969-0.434-0.969-0.969s0.434-0.969,0.969-0.969S6,21.496,6,22.031
		S5.566,23,5.031,23z M10.002,27C8.893,27,8,26.105,8,25s0.893-2,2.002-2c1.102,0,2,0.895,2,2S11.104,27,10.002,27z M12.002,19
		h-1.945c-0.016-1.105-0.914-2-2.023-2c-1.111,0-2.01,0.895-2.025,2H4V7h8.002V19z"/>
</g>
</svg>
