<?xml version="1.0" encoding="iso-8859-1"?>
<!-- Generator: Adobe Illustrator 16.0.0, SVG Export Plug-In . SVG Version: 6.00 Build 0)  -->
<!DOCTYPE svg PUBLIC "-//W3C//DTD SVG 1.1//EN" "http://www.w3.org/Graphics/SVG/1.1/DTD/svg11.dtd">
<svg version="1.1" id="Layer_1" xmlns="http://www.w3.org/2000/svg" xmlns:xlink="http://www.w3.org/1999/xlink" x="0px" y="0px"
	 width="32.002px" height="43px" viewBox="0 0 32.002 43" style="enable-background:new 0 0 32.002 43;" xml:space="preserve">
<path style="fill:#010101;" d="M16,9c0,0-4-4-16-4v24c12.125,0,16,4,16,4s3.877-4,16.002-4V5C20.002,5,16,9,16,9z M4,9
	c5.084,0.426,8.203,1.602,10,2.555v16.109c-1.797-0.949-4.916-2.125-10-2.555V9z M27.998,25.109
	c-5.082,0.43-8.203,1.605-9.996,2.555V11.555c1.793-0.953,4.914-2.129,9.996-2.555V25.109z"/>
</svg>
