<?xml version="1.0" encoding="iso-8859-1"?>
<!-- Generator: Adobe Illustrator 16.0.0, SVG Export Plug-In . SVG Version: 6.00 Build 0)  -->
<!DOCTYPE svg PUBLIC "-//W3C//DTD SVG 1.1//EN" "http://www.w3.org/Graphics/SVG/1.1/DTD/svg11.dtd">
<svg version="1.1" id="Layer_1" xmlns="http://www.w3.org/2000/svg" xmlns:xlink="http://www.w3.org/1999/xlink" x="0px" y="0px"
	 width="32.002px" height="43px" viewBox="0 0 32.002 43" style="enable-background:new 0 0 32.002 43;" xml:space="preserve">
<g>
	<polygon style="fill:#010101;" points="32.002,35 0,35 0,7 4,7 4,31 28.002,31 28.002,7 32.002,7 32.002,35 	"/>
	<rect x="6" y="15" style="fill:#010101;" width="4" height="4"/>
	<rect x="14" y="15.008" style="fill:#010101;" width="4.002" height="4"/>
	<rect x="22.002" y="15" style="fill:#010101;" width="4" height="4"/>
	<rect x="6" y="23" style="fill:#010101;" width="4" height="4"/>
	<rect x="14" y="23" style="fill:#010101;" width="4.002" height="4"/>
	<polygon style="fill:#010101;" points="22.002,27 22.002,23 26.002,23 	"/>
	<path style="fill:#010101;" d="M8,9V5c0-1.105,0.895-2,2-2s2,0.895,2,2v4c0,1.105-0.895,2-2,2S8,10.105,8,9z"/>
	<path style="fill:#010101;" d="M20.002,9V5c0-1.105,0.891-2,2-2c1.102,0,2,0.895,2,2v4c0,1.105-0.898,2-2,2
		C20.893,11,20.002,10.105,20.002,9z"/>
</g>
</svg>
