<?xml version="1.0" encoding="iso-8859-1"?>
<!-- Generator: Adobe Illustrator 16.0.0, SVG Export Plug-In . SVG Version: 6.00 Build 0)  -->
<!DOCTYPE svg PUBLIC "-//W3C//DTD SVG 1.1//EN" "http://www.w3.org/Graphics/SVG/1.1/DTD/svg11.dtd">
<svg version="1.1" id="Layer_1" xmlns="http://www.w3.org/2000/svg" xmlns:xlink="http://www.w3.org/1999/xlink" x="0px" y="0px"
	 width="32.002px" height="43px" viewBox="0 0 32.002 43" style="enable-background:new 0 0 32.002 43;" xml:space="preserve">
<g>
	<path style="fill:#010101;" d="M26.002,7v2.047c0,2.211-1.789,4-4,4s-4-1.789-4-4V7H14v2.047c0,2.211-1.789,4-4,4s-4-1.789-4-4V7H0
		v28h32.002V7H26.002z M10,31H6v-4h4V31z M10,23H6v-4h4V23z M18.002,31H14v-4h4.002V31z M18.002,23.008H14v-4h4.002V23.008z
		 M22.002,31v-4h4L22.002,31z M26.002,23h-4v-4h4V23z"/>
	<path style="fill:#010101;" d="M8,9V5c0-1.105,0.895-2,2-2s2,0.895,2,2v4c0,1.105-0.895,2-2,2S8,10.105,8,9z"/>
	<path style="fill:#010101;" d="M20.002,9V5c0-1.105,0.891-2,2-2c1.102,0,2,0.895,2,2v4c0,1.105-0.898,2-2,2
		C20.893,11,20.002,10.105,20.002,9z"/>
</g>
</svg>
