<?xml version="1.0" encoding="iso-8859-1"?>
<!-- Generator: Adobe Illustrator 16.0.0, SVG Export Plug-In . SVG Version: 6.00 Build 0)  -->
<!DOCTYPE svg PUBLIC "-//W3C//DTD SVG 1.1//EN" "http://www.w3.org/Graphics/SVG/1.1/DTD/svg11.dtd">
<svg version="1.1" id="Layer_1" xmlns="http://www.w3.org/2000/svg" xmlns:xlink="http://www.w3.org/1999/xlink" x="0px" y="0px"
	 width="32.002px" height="43px" viewBox="0 0 32.002 43" style="enable-background:new 0 0 32.002 43;" xml:space="preserve">
<g>
	<path style="fill:#010101;" d="M20.002,19C17.791,19,16,20.791,16,23c0,2.211,1.791,4,4.002,4c2.207,0,4-1.789,4-4
		C24.002,20.791,22.209,19,20.002,19z"/>
	<path style="fill:#010101;" d="M28.002,11l-3.293-6.643C24.439,3.568,23.697,3,22.814,3h-5.492c-0.895,0-1.648,0.582-1.906,1.385
		L12.004,11H4c-2.209,0-4,1.791-4,4v20h32.002V15C32.002,12.791,30.209,11,28.002,11z M6,19c-1.105,0-2-0.895-2-2s0.895-2,2-2
		s2,0.895,2,2S7.105,19,6,19z M20.002,31C15.582,31,12,27.418,12,23s3.582-8,8.002-8c4.414,0,8,3.582,8,8S24.416,31,20.002,31z"/>
</g>
</svg>
