<?xml version="1.0" encoding="iso-8859-1"?>
<!-- Generator: Adobe Illustrator 16.0.0, SVG Export Plug-In . SVG Version: 6.00 Build 0)  -->
<!DOCTYPE svg PUBLIC "-//W3C//DTD SVG 1.1//EN" "http://www.w3.org/Graphics/SVG/1.1/DTD/svg11.dtd">
<svg version="1.1" id="Layer_1" xmlns="http://www.w3.org/2000/svg" xmlns:xlink="http://www.w3.org/1999/xlink" x="0px" y="0px"
	 width="32.002px" height="43px" viewBox="0 0 32.002 43" style="enable-background:new 0 0 32.002 43;" xml:space="preserve">
<g>
	<g>
		<path style="fill:#010101;" d="M25.979,15.213c-0.031,1.387-0.336,2.695-0.883,3.889c2.883,0.48,2.906,2.828,2.906,3.898
			c0,0.992,0,4-4,4h-4c-2.609,0-4.939,1.258-6.4,3.203C12.633,29.469,12,28.305,12,27v-4c0-0.791,0.141-1.414,0.359-1.928
			C12.242,21.051,12.125,21,12,21H8.203c-0.129,0.619-0.199,1.281-0.199,2v4c0,4.418,3.578,8,7.996,8c0-2.211,1.791-4,4.002-4h4
			c4,0,8-2.25,8-8C32.002,18.107,29.221,15.84,25.979,15.213z"/>
	</g>
	<path style="fill:#010101;" d="M16,7c1.494,0,4.002,0.52,4.002,4v4c0,1.309-0.633,2.471-1.602,3.201C16.939,16.26,14.609,15,12,15
		H8.004C4,15,4,11.99,4,11c0-1.195,0-4,4.004-4H16 M16,3H8.004C4,3,0,5.125,0,11c0,5.75,4,8,8.004,8H12c2.211,0,4,1.793,4,4
		c4.416,0,8.002-3.582,8.002-8v-4C24.002,5.479,20.002,3,16,3L16,3z"/>
</g>
</svg>
