<?xml version="1.0" encoding="iso-8859-1"?>
<!-- Generator: Adobe Illustrator 16.0.0, SVG Export Plug-In . SVG Version: 6.00 Build 0)  -->
<!DOCTYPE svg PUBLIC "-//W3C//DTD SVG 1.1//EN" "http://www.w3.org/Graphics/SVG/1.1/DTD/svg11.dtd">
<svg version="1.1" id="Layer_1" xmlns="http://www.w3.org/2000/svg" xmlns:xlink="http://www.w3.org/1999/xlink" x="0px" y="0px"
	 width="32.002px" height="43px" viewBox="0 0 32.002 43" style="enable-background:new 0 0 32.002 43;" xml:space="preserve">
<g>
	<g>
		<path style="fill:#010101;" d="M23.994,15c0,4.418-3.578,8-7.994,8c0-2.207-1.793-4-4-4H7.996C4,19,0,16.75,0,11
			c0-5.875,4-8,7.996-8H16c4.002,0,7.994,2.479,7.994,8V15z"/>
	</g>
	<path style="fill:#010101;" d="M12,15"/>
	<path style="fill:#010101;" d="M12,15"/>
	<g>
		<g>
			<path style="fill:#010101;" d="M25.979,15.213C25.861,20.625,21.439,25,16,25h-2v-2c0-1.104-0.898-2-2-2H8.199
				c-0.125,0.619-0.203,1.281-0.203,2v4c0,4.418,3.586,8,8.004,8c0-2.211,1.791-4,4.002-4h3.992c4.008,0,8.008-2.25,8.008-8
				C32.002,18.107,29.213,15.84,25.979,15.213z"/>
		</g>
	</g>
</g>
</svg>
