<?xml version="1.0" encoding="iso-8859-1"?>
<!-- Generator: Adobe Illustrator 16.0.0, SVG Export Plug-In . SVG Version: 6.00 Build 0)  -->
<!DOCTYPE svg PUBLIC "-//W3C//DTD SVG 1.1//EN" "http://www.w3.org/Graphics/SVG/1.1/DTD/svg11.dtd">
<svg version="1.1" id="Layer_1" xmlns="http://www.w3.org/2000/svg" xmlns:xlink="http://www.w3.org/1999/xlink" x="0px" y="0px"
	 width="32.002px" height="43px" viewBox="0 0 32.002 43" style="enable-background:new 0 0 32.002 43;" xml:space="preserve">
<path style="fill:#010101;" d="M23.994,15v-4c0-5.523-3.992-8-7.994-8H7.996C4,3,0,5.125,0,11c0,5.75,4,8,7.996,8h0.93
	c-0.566,1.1-0.93,2.406-0.93,4v4c0,4.418,3.586,8,8.004,8c0-2.211,1.791-4,4.002-4h3.992c4.008,0,8.008-2.25,8.008-8
	C32.002,17.125,28.002,15,23.994,15z M7.996,15C4,15,4,11.988,4,11c0-1.199,0-4,3.996-4H16c1.494,0,4.002,0.52,4.002,4v4
	c0,1.307-0.633,2.471-1.609,3.201C16.932,16.258,14.609,15,12,15H7.996z M23.994,27h-3.992c-2.617,0-4.939,1.258-6.4,3.199
	C12.629,29.469,12,28.305,12,27v-4c0-1.83,0.91-2.941,1.816-3.512C15.098,20.156,16,21.457,16,23c2.955,0,5.51-1.621,6.893-4.004
	c0,0.002,0,0.002,0,0.002L23.994,19c4.008,0,4.008,2.803,4.008,4C28.002,23.992,28.002,27,23.994,27z M23.721,16.994
	c-0.031,0.092-0.062,0.182-0.086,0.271C23.658,17.176,23.697,17.086,23.721,16.994z"/>
</svg>
