<?xml version="1.0" encoding="iso-8859-1"?>
<!-- Generator: Adobe Illustrator 16.0.0, SVG Export Plug-In . SVG Version: 6.00 Build 0)  -->
<!DOCTYPE svg PUBLIC "-//W3C//DTD SVG 1.1//EN" "http://www.w3.org/Graphics/SVG/1.1/DTD/svg11.dtd">
<svg version="1.1" id="Layer_1" xmlns="http://www.w3.org/2000/svg" xmlns:xlink="http://www.w3.org/1999/xlink" x="0px" y="0px"
	 width="32.002px" height="43px" viewBox="0 0 32.002 43" style="enable-background:new 0 0 32.002 43;" xml:space="preserve">
<g>
	<path style="fill:#010101;" d="M16,7c6.619,0,12.002,5.383,12.002,12S22.619,31,16,31C9.383,31,4,25.617,4,19S9.383,7,16,7 M16,3
		C7.164,3,0,10.164,0,19s7.164,16,16,16c8.838,0,16.002-7.164,16.002-16S24.838,3,16,3L16,3z"/>
	<path style="fill:#010101;" d="M21.424,21.578l-3.422-3.426V11h-4.025v7.992c0,0.602,0.277,1.121,0.695,1.492l3.924,3.922
		L21.424,21.578z"/>
</g>
</svg>
