<?xml version="1.0" encoding="iso-8859-1"?>
<!-- Generator: Adobe Illustrator 16.0.0, SVG Export Plug-In . SVG Version: 6.00 Build 0)  -->
<!DOCTYPE svg PUBLIC "-//W3C//DTD SVG 1.1//EN" "http://www.w3.org/Graphics/SVG/1.1/DTD/svg11.dtd">
<svg version="1.1" id="Layer_1" xmlns="http://www.w3.org/2000/svg" xmlns:xlink="http://www.w3.org/1999/xlink" x="0px" y="0px"
	 width="32.002px" height="43px" viewBox="0 0 32.002 43" style="enable-background:new 0 0 32.002 43;" xml:space="preserve">
<g>
	<path style="fill:#010101;" d="M24.002,7C23.623,7,23.26,7.059,22.9,7.113C21.502,4.645,18.924,3,16,3
		c-2.988,0-5.568,1.668-6.941,4.098C8.707,7.051,8.357,7,8,7c-4.412,0-8,3.59-8,8s3.588,8,8,8h6v6h-4l5.998,6l6.004-6h-4v-6h6
		c4.41,0,8-3.59,8-8S28.412,7,24.002,7z M24.002,19H8c-2.205,0-4-1.793-4-4c0-2.191,1.943-3.887,4.004-3.945
		c0.008,0.941,0.172,1.871,0.5,2.746l3.746-1.406C12.084,11.953,12,11.48,12,11c0-2.207,1.795-4,4-4
		c1.295,0,2.463,0.641,3.201,1.637C17.268,10.098,16,12.395,16,15h4.002c0-2.207,1.793-4,4-4c2.203,0,4,1.793,4,4
		S26.205,19,24.002,19z"/>
</g>
</svg>
