<?xml version="1.0" encoding="iso-8859-1"?>
<!-- Generator: Adobe Illustrator 16.0.0, SVG Export Plug-In . SVG Version: 6.00 Build 0)  -->
<!DOCTYPE svg PUBLIC "-//W3C//DTD SVG 1.1//EN" "http://www.w3.org/Graphics/SVG/1.1/DTD/svg11.dtd">
<svg version="1.1" id="Layer_1" xmlns="http://www.w3.org/2000/svg" xmlns:xlink="http://www.w3.org/1999/xlink" x="0px" y="0px"
	 width="32.002px" height="43px" viewBox="0 0 32.002 43" style="enable-background:new 0 0 32.002 43;" xml:space="preserve">
<g>
	<path style="fill:#010101;" d="M24.002,7C23.623,7,23.26,7.062,22.9,7.109C21.502,4.648,18.924,3,16,3
		c-2.988,0-5.568,1.664-6.941,4.102C8.707,7.055,8.357,7,8,7c-4.412,0-8,3.586-8,8s3.588,8,8,8h16.002c4.41,0,8-3.586,8-8
		S28.412,7,24.002,7z M24.002,19H8c-2.205,0-4-1.797-4-4c0-2.195,1.943-3.883,4.004-3.945c0.008,0.945,0.172,1.867,0.5,2.742
		l3.746-1.398C12.084,11.953,12,11.484,12,11c0-2.203,1.795-4,4-4c1.295,0,2.463,0.641,3.201,1.641C17.268,10.102,16,12.395,16,15
		h4.002c0-2.203,1.793-4,4-4c2.203,0,4,1.797,4,4S26.205,19,24.002,19z"/>
	<g>
		<polygon style="fill:#010101;" points="18.002,29 22.002,29 16.002,23 10.002,29 14.002,29 14.002,35 18.002,35 		"/>
	</g>
</g>
</svg>
