<?xml version="1.0" encoding="iso-8859-1"?>
<!-- Generator: Adobe Illustrator 16.0.0, SVG Export Plug-In . SVG Version: 6.00 Build 0)  -->
<!DOCTYPE svg PUBLIC "-//W3C//DTD SVG 1.1//EN" "http://www.w3.org/Graphics/SVG/1.1/DTD/svg11.dtd">
<svg version="1.1" id="Layer_1" xmlns="http://www.w3.org/2000/svg" xmlns:xlink="http://www.w3.org/1999/xlink" x="0px" y="0px"
	 width="32.002px" height="43px" viewBox="0 0 32.002 43" style="enable-background:new 0 0 32.002 43;" xml:space="preserve">
<path style="fill:#010101;" d="M32.002,20.969v-4l-4.781-1.992c-0.133-0.375-0.273-0.738-0.445-1.094l1.93-4.805L25.877,6.25
	l-4.766,1.961c-0.359-0.176-0.734-0.324-1.117-0.461L17.971,3h-4.002l-1.977,4.734c-0.398,0.141-0.781,0.289-1.16,0.469l-4.754-1.91
	L3.25,9.121l1.938,4.711C5,14.219,4.848,14.613,4.703,15.02L0,17.031v4l4.707,1.961c0.145,0.406,0.301,0.801,0.488,1.188
	l-1.902,4.742l2.828,2.828l4.723-1.945c0.379,0.18,0.766,0.324,1.164,0.461L14.031,35h4.002l1.977-4.758
	c0.383-0.141,0.758-0.289,1.117-0.461l4.797,1.922l2.828-2.828l-1.969-4.773c0.164-0.359,0.305-0.723,0.438-1.094L32.002,20.969z
	 M15.969,25c-3.312,0-6-2.688-6-6s2.688-6,6-6c3.314,0,6.002,2.688,6.002,6S19.283,25,15.969,25z"/>
</svg>
