<?xml version="1.0" encoding="iso-8859-1"?>
<!-- Generator: Adobe Illustrator 16.0.0, SVG Export Plug-In . SVG Version: 6.00 Build 0)  -->
<!DOCTYPE svg PUBLIC "-//W3C//DTD SVG 1.1//EN" "http://www.w3.org/Graphics/SVG/1.1/DTD/svg11.dtd">
<svg version="1.1" id="Layer_1" xmlns="http://www.w3.org/2000/svg" xmlns:xlink="http://www.w3.org/1999/xlink" x="0px" y="0px"
	 width="32px" height="43px" viewBox="0 0 32 43" style="enable-background:new 0 0 32 43;" xml:space="preserve">
<g>
	<path style="fill:#010101;" d="M16.003,11C27.074,11,28,15.129,28,19c0,1.344-0.355,2.805-0.746,4h-13.25
		c-4.703,0-6.738,0.195-9,1.758c-0.938-2.57-1.539-6.047-0.379-8.84C5.976,12.656,9.804,11,16.003,11 M16.003,7
		C-6.368,7,0.011,27,4.007,31c4-4,4-4,9.996-4h15.934c0,0,2.062-4,2.062-8C32,9,24.003,7,16.003,7L16.003,7z"/>
</g>
</svg>
