<?xml version="1.0" encoding="iso-8859-1"?>
<!-- Generator: Adobe Illustrator 16.0.0, SVG Export Plug-In . SVG Version: 6.00 Build 0)  -->
<!DOCTYPE svg PUBLIC "-//W3C//DTD SVG 1.1//EN" "http://www.w3.org/Graphics/SVG/1.1/DTD/svg11.dtd">
<svg version="1.1" id="Layer_1" xmlns="http://www.w3.org/2000/svg" xmlns:xlink="http://www.w3.org/1999/xlink" x="0px" y="0px"
	 width="32.002px" height="43px" viewBox="0 0 32.002 43" style="enable-background:new 0 0 32.002 43;" xml:space="preserve">
<path style="fill:#010101;" d="M20.002,9c4.414,0,8,3.586,8,8s-3.586,8-8,8H12c-2.609,0-4.934,1.258-6.395,3.203
	C4.633,27.469,4,26.305,4,25V15c0-3.309,2.695-6,6-6H20.002 M20.002,5H10C4.477,5,0,9.477,0,15v10c0,4.418,3.586,8,8,8
	c0-2.211,1.793-4,4-4h8.002c6.625,0,12-5.375,12-12S26.627,5,20.002,5L20.002,5z"/>
</svg>
