<?xml version="1.0" encoding="iso-8859-1"?>
<!-- Generator: Adobe Illustrator 16.0.0, SVG Export Plug-In . SVG Version: 6.00 Build 0)  -->
<!DOCTYPE svg PUBLIC "-//W3C//DTD SVG 1.1//EN" "http://www.w3.org/Graphics/SVG/1.1/DTD/svg11.dtd">
<svg version="1.1" id="Layer_1" xmlns="http://www.w3.org/2000/svg" xmlns:xlink="http://www.w3.org/1999/xlink" x="0px" y="0px"
	 width="32.002px" height="43px" viewBox="0 0 32.002 43" style="enable-background:new 0 0 32.002 43;" xml:space="preserve">
<path style="fill:#010101;" d="M16,3C7.164,3,0,10.164,0,19s7.164,16,16,16c8.838,0,16.002-7.164,16.002-16S24.838,3,16,3z M16,7
	c2.588,0,4.971,0.844,6.932,2.242L6.238,25.93C4.84,23.969,4,21.586,4,19C4,12.383,9.383,7,16,7z M16,31
	c-2.59,0-4.973-0.844-6.934-2.242L25.76,12.07c1.398,1.961,2.242,4.344,2.242,6.93C28.002,25.617,22.619,31,16,31z"/>
</svg>
