<?xml version="1.0" encoding="iso-8859-1"?>
<!-- Generator: Adobe Illustrator 16.0.0, SVG Export Plug-In . SVG Version: 6.00 Build 0)  -->
<!DOCTYPE svg PUBLIC "-//W3C//DTD SVG 1.1//EN" "http://www.w3.org/Graphics/SVG/1.1/DTD/svg11.dtd">
<svg version="1.1" id="Layer_1" xmlns="http://www.w3.org/2000/svg" xmlns:xlink="http://www.w3.org/1999/xlink" x="0px" y="0px"
	 width="32.002px" height="43px" viewBox="0 0 32.002 43" style="enable-background:new 0 0 32.002 43;" xml:space="preserve">
<g>
	<path style="fill:#010101;" d="M16,14.914c-2.211,0-4,1.789-4,4s1.793,4,4,4c2.213,0,4.002-1.789,4.002-4S18.213,14.914,16,14.914z
		"/>
	<path style="fill:#010101;" d="M28.557,9.133c-0.344,0.281-0.766,0.469-1.242,0.469c-1.102,0-2-0.891-2-2
		c0-0.484,0.195-0.914,0.484-1.266c-2.219-1.711-4.906-2.863-7.836-3.227C17.861,4.117,17.041,4.914,16,4.914
		c-1.039,0-1.871-0.805-1.961-1.828c-2.969,0.383-5.672,1.555-7.91,3.328C6.383,6.75,6.562,7.148,6.562,7.602c0,1.109-0.891,2-2,2
		c-0.445,0-0.844-0.172-1.176-0.422C1.297,11.883,0,15.234,0,18.914c0,8.836,7.164,16,16,16c8.838,0,16.002-7.164,16.002-16
		C32.002,15.199,30.689,11.832,28.557,9.133z M16,26.914c-4.418,0-8-3.582-8-8c0-2.211,0.895-4.207,2.344-5.656L16,7.602l5.65,5.648
		c1.453,1.449,2.352,3.453,2.352,5.664C24.002,23.336,20.416,26.914,16,26.914z"/>
</g>
</svg>
