<?xml version="1.0" encoding="iso-8859-1"?>
<!-- Generator: Adobe Illustrator 16.0.0, SVG Export Plug-In . SVG Version: 6.00 Build 0)  -->
<!DOCTYPE svg PUBLIC "-//W3C//DTD SVG 1.1//EN" "http://www.w3.org/Graphics/SVG/1.1/DTD/svg11.dtd">
<svg version="1.1" id="Layer_1" xmlns="http://www.w3.org/2000/svg" xmlns:xlink="http://www.w3.org/1999/xlink" x="0px" y="0px"
	 width="32.002px" height="43px" viewBox="0 0 32.002 43" style="enable-background:new 0 0 32.002 43;" xml:space="preserve">
<path style="fill:#010101;" d="M22.018,3H0v31.938l8.051-6.578L16.072,35l8.008-6.633l7.922,6.617V13L22.018,3z M28.018,26.938
	l-3.953-3.227l-7.992,6.617L8.09,23.719l-4.086,3.219c0,0,0-17.359,0-20c2.102,0,7.809,0,12.006,0v12h12.008
	C28.018,21.668,28.018,26.938,28.018,26.938z M20.018,14.938c0-1.543,0-5.914,0-8c1.617,1.617,6.398,6.398,8,8
	C25.971,14.938,21.572,14.938,20.018,14.938z"/>
</svg>
