<?xml version="1.0" encoding="iso-8859-1"?>
<!-- Generator: Adobe Illustrator 16.0.0, SVG Export Plug-In . SVG Version: 6.00 Build 0)  -->
<!DOCTYPE svg PUBLIC "-//W3C//DTD SVG 1.1//EN" "http://www.w3.org/Graphics/SVG/1.1/DTD/svg11.dtd">
<svg version="1.1" id="Layer_1" xmlns="http://www.w3.org/2000/svg" xmlns:xlink="http://www.w3.org/1999/xlink" x="0px" y="0px"
	 width="28.002px" height="43px" viewBox="0 0 28.002 43" style="enable-background:new 0 0 28.002 43;" xml:space="preserve">
<g>
	<path style="fill:#010101;" d="M20.002,3v3.875c0,1.602-0.625,3.109-1.758,4.238L6.93,22.367C5.141,24.152,4.156,26.496,4.047,29H0
		l6,6l6-6H8.043c0.105-1.438,0.684-2.773,1.711-3.805l11.318-11.25c1.891-1.891,2.93-4.398,2.93-7.07V3H20.002z"/>
	<path style="fill:#010101;" d="M23.955,29c-0.109-2.504-1.102-4.848-2.891-6.641l-2.227-2.215L16,22.965l2.244,2.23
		c1.031,1.027,1.609,2.367,1.711,3.805H16l6.002,6l6-6H23.955z"/>
</g>
</svg>
