<?xml version="1.0" encoding="iso-8859-1"?>
<!-- Generator: Adobe Illustrator 16.0.0, SVG Export Plug-In . SVG Version: 6.00 Build 0)  -->
<!DOCTYPE svg PUBLIC "-//W3C//DTD SVG 1.1//EN" "http://www.w3.org/Graphics/SVG/1.1/DTD/svg11.dtd">
<svg version="1.1" id="Layer_1" xmlns="http://www.w3.org/2000/svg" xmlns:xlink="http://www.w3.org/1999/xlink" x="0px" y="0px"
	 width="32.002px" height="43px" viewBox="0 0 32.002 43" style="enable-background:new 0 0 32.002 43;" xml:space="preserve">
<g>
	<polygon style="fill:#010101;" points="27.416,27.586 22.83,23 20.002,25.828 24.588,30.414 20.002,35 32.002,35 32.002,23 	"/>
	<polygon style="fill:#010101;" points="12,3 0,3 0,15 4.586,10.414 9.129,14.953 11.957,12.125 7.414,7.586 	"/>
	<polygon style="fill:#010101;" points="12,25.828 9.172,23 4.586,27.586 0,23 0,35 12,35 7.414,30.414 	"/>
	<polygon style="fill:#010101;" points="32.002,3 20.002,3 24.588,7.586 20.041,12.125 22.869,14.953 27.416,10.414 32.002,15 	"/>
</g>
</svg>
