<?xml version="1.0" encoding="iso-8859-1"?>
<!-- Generator: Adobe Illustrator 16.0.0, SVG Export Plug-In . SVG Version: 6.00 Build 0)  -->
<!DOCTYPE svg PUBLIC "-//W3C//DTD SVG 1.1//EN" "http://www.w3.org/Graphics/SVG/1.1/DTD/svg11.dtd">
<svg version="1.1" id="Layer_1" xmlns="http://www.w3.org/2000/svg" xmlns:xlink="http://www.w3.org/1999/xlink" x="0px" y="0px"
	 width="32.002px" height="43px" viewBox="0 0 32.002 43" style="enable-background:new 0 0 32.002 43;" xml:space="preserve">
<g>
	<polygon style="fill:#010101;" points="24.588,30.414 29.174,35 32.002,32.172 27.416,27.586 32.002,23 20.002,23 20.002,35 	"/>
	<polygon style="fill:#010101;" points="0,15 12,15 12,3 7.414,7.586 2.875,3.043 0.047,5.871 4.586,10.414 	"/>
	<polygon style="fill:#010101;" points="0,32.172 2.828,35 7.414,30.414 12,35 12,23 0,23 4.586,27.586 	"/>
	<polygon style="fill:#010101;" points="20.002,15 32.002,15 27.416,10.414 31.963,5.871 29.135,3.043 24.588,7.586 20.002,3 	"/>
</g>
</svg>
