<?xml version="1.0" encoding="iso-8859-1"?>
<!-- Generator: Adobe Illustrator 16.0.0, SVG Export Plug-In . SVG Version: 6.00 Build 0)  -->
<!DOCTYPE svg PUBLIC "-//W3C//DTD SVG 1.1//EN" "http://www.w3.org/Graphics/SVG/1.1/DTD/svg11.dtd">
<svg version="1.1" id="Layer_1" xmlns="http://www.w3.org/2000/svg" xmlns:xlink="http://www.w3.org/1999/xlink" x="0px" y="0px"
	 width="30.385px" height="43px" viewBox="0 0 30.385 43" style="enable-background:new 0 0 30.385 43;" xml:space="preserve">
<g>
	<g>
		<g>
			<circle style="fill:#010101;" cx="6" cy="9" r="3"/>
		</g>
		<g>
			<path style="fill:#010101;" d="M10.387,19.148C9.289,16.398,7.738,14,6,14c-3.312,0-6,8.688-6,12c0,1.109,0.895,2,2,2h5.209
				C7.617,25.504,8.654,21.789,10.387,19.148z"/>
		</g>
	</g>
	<g>
		<g>
			<circle style="fill:#010101;" cx="24.385" cy="9" r="3"/>
		</g>
		<g>
			<path style="fill:#010101;" d="M24.385,14c-1.734,0-3.289,2.398-4.383,5.148c1.73,2.641,2.766,6.355,3.176,8.852h5.207
				c1.109,0,2-0.891,2-2C30.385,22.688,27.697,14,24.385,14z"/>
		</g>
	</g>
	<g>
		<g>
			<path style="fill:#010101;" d="M15.193,18c-3.312,0-6,8.688-6,12c0,1.109,0.895,2,2,2h8c1.105,0,2-0.891,2-2
				C21.193,26.688,18.506,18,15.193,18z"/>
		</g>
		<g>
			<circle style="fill:#010101;" cx="15.193" cy="13" r="3"/>
		</g>
	</g>
</g>
</svg>
