<?xml version="1.0" encoding="iso-8859-1"?>
<!-- Generator: Adobe Illustrator 16.0.0, SVG Export Plug-In . SVG Version: 6.00 Build 0)  -->
<!DOCTYPE svg PUBLIC "-//W3C//DTD SVG 1.1//EN" "http://www.w3.org/Graphics/SVG/1.1/DTD/svg11.dtd">
<svg version="1.1" id="Layer_1" xmlns="http://www.w3.org/2000/svg" xmlns:xlink="http://www.w3.org/1999/xlink" x="0px" y="0px"
	 width="30.002px" height="43px" viewBox="0 0 30.002 43" style="enable-background:new 0 0 30.002 43;" xml:space="preserve">
<g>
	<g>
		<g>
			<circle style="fill:#010101;" cx="6" cy="10" r="3"/>
		</g>
		<g>
			<path style="fill:#010101;" d="M10,27c1.105,0,2-0.891,2-2c0-1.035-0.287-2.605-0.748-4.262C10.277,22.723,9.559,25.09,9.225,27
				H10z"/>
			<path style="fill:#010101;" d="M10.387,18.148C9.289,15.398,7.738,13,6,13c-3.312,0-6,8.688-6,12c0,1.109,0.895,2,2,2h5.209
				C7.617,24.504,8.654,20.789,10.387,18.148z"/>
		</g>
	</g>
	<g>
		<g>
			<circle style="fill:#010101;" cx="24.002" cy="10" r="3"/>
		</g>
		<g>
			<path style="fill:#010101;" d="M18.002,25c0,1.109,0.891,2,2,2h0.773c-0.336-1.91-1.055-4.277-2.027-6.262
				C18.287,22.395,18.002,23.965,18.002,25z"/>
			<path style="fill:#010101;" d="M24.002,13c-1.742,0-3.289,2.398-4.391,5.148c1.734,2.641,2.773,6.355,3.18,8.852h5.211
				c1.102,0,2-0.891,2-2C30.002,21.688,27.314,13,24.002,13z"/>
		</g>
	</g>
	<g>
		<g>
			<path style="fill:#010101;" d="M15,17c-3.312,0-6,8.688-6,12c0,1.109,0.895,2,2,2h8.002c1.102,0,2-0.891,2-2
				C21.002,25.688,18.314,17,15,17z"/>
		</g>
		<g>
			<circle style="fill:#010101;" cx="15.001" cy="14" r="3.001"/>
		</g>
	</g>
</g>
</svg>
