<?xml version="1.0" encoding="iso-8859-1"?>
<!-- Generator: Adobe Illustrator 16.0.0, SVG Export Plug-In . SVG Version: 6.00 Build 0)  -->
<!DOCTYPE svg PUBLIC "-//W3C//DTD SVG 1.1//EN" "http://www.w3.org/Graphics/SVG/1.1/DTD/svg11.dtd">
<svg version="1.1" id="Layer_1" xmlns="http://www.w3.org/2000/svg" xmlns:xlink="http://www.w3.org/1999/xlink" x="0px" y="0px"
	 width="32.002px" height="43px" viewBox="0 0 32.002 43" style="enable-background:new 0 0 32.002 43;" xml:space="preserve">
<path style="fill:#010101;" d="M30.002,21h-2v-4c0-6.625-5.375-12-12.002-12C9.375,5,4,10.375,4,17v4H2c-1.105,0-2,0.895-2,2v8
	c0,1.105,0.895,2,2,2h6V21v-4c0-4.414,3.586-8,8-8c4.416,0,8.002,3.586,8.002,8v4v12h6c1.102,0,2-0.895,2-2v-8
	C32.002,21.895,31.104,21,30.002,21z"/>
</svg>
