<?xml version="1.0" encoding="iso-8859-1"?>
<!-- Generator: Adobe Illustrator 16.0.0, SVG Export Plug-In . SVG Version: 6.00 Build 0)  -->
<!DOCTYPE svg PUBLIC "-//W3C//DTD SVG 1.1//EN" "http://www.w3.org/Graphics/SVG/1.1/DTD/svg11.dtd">
<svg version="1.1" id="Layer_1" xmlns="http://www.w3.org/2000/svg" xmlns:xlink="http://www.w3.org/1999/xlink" x="0px" y="0px"
	 width="32.002px" height="43px" viewBox="0 0 32.002 43" style="enable-background:new 0 0 32.002 43;" xml:space="preserve">
<g>
	<path style="fill:#010101;" d="M23.111,9c2.461,0,4.492,1.82,4.836,4.188L16.002,26.906L4.051,13.188C4.395,10.82,6.43,9,8.887,9
		c2.016,0,3.855,2.164,3.855,2.164L16,14.625l3.26-3.461C19.26,11.164,21.096,9,23.111,9 M23.111,5c-2.984,0-5.5,1.578-7.111,3.844
		C14.387,6.578,11.871,5,8.887,5C3.984,5,0,8.992,0,13.891v0.734L16.01,33l15.992-18.375v-0.734C32.002,8.992,28.018,5,23.111,5
		L23.111,5z"/>
</g>
</svg>
