<?xml version="1.0" encoding="iso-8859-1"?>
<!-- Generator: Adobe Illustrator 16.0.0, SVG Export Plug-In . SVG Version: 6.00 Build 0)  -->
<!DOCTYPE svg PUBLIC "-//W3C//DTD SVG 1.1//EN" "http://www.w3.org/Graphics/SVG/1.1/DTD/svg11.dtd">
<svg version="1.1" id="Layer_1" xmlns="http://www.w3.org/2000/svg" xmlns:xlink="http://www.w3.org/1999/xlink" x="0px" y="0px"
	 width="32.002px" height="43px" viewBox="0 0 32.002 43" style="enable-background:new 0 0 32.002 43;" xml:space="preserve">
<g>
	<path style="fill:#010101;" d="M22.002,7c3.305,0,6,2.691,6,6s-2.695,6-6,6c-0.312,0-0.66-0.039-1.09-0.117L18.846,18.5
		l-1.492,1.488l-0.18,0.184L16,21.344V23h-4v4H8v4H4v-2.344l11.012-11.012l1.49-1.488l-0.383-2.07C16.037,13.656,16,13.312,16,13
		C16,9.691,18.689,7,22.002,7 M22.002,3C16.479,3,12,7.477,12,13c0,0.625,0.074,1.227,0.184,1.816L0,27v8h12v-4h4v-4h4.002v-4
		l0.18-0.184C20.775,22.926,21.377,23,22.002,23c5.523,0,10-4.477,10-10S27.525,3,22.002,3L22.002,3z"/>
	<path style="fill:#010101;" d="M24.01,13c0,1.105-0.898,2-2,2c-1.109,0-2-0.895-2-2s0.891-2,2-2C23.111,11,24.01,11.895,24.01,13z"
		/>
</g>
</svg>
