<?xml version="1.0" encoding="iso-8859-1"?>
<!-- Generator: Adobe Illustrator 16.0.0, SVG Export Plug-In . SVG Version: 6.00 Build 0)  -->
<!DOCTYPE svg PUBLIC "-//W3C//DTD SVG 1.1//EN" "http://www.w3.org/Graphics/SVG/1.1/DTD/svg11.dtd">
<svg version="1.1" id="Layer_1" xmlns="http://www.w3.org/2000/svg" xmlns:xlink="http://www.w3.org/1999/xlink" x="0px" y="0px"
	 width="32.002px" height="43px" viewBox="0 0 32.002 43" style="enable-background:new 0 0 32.002 43;" xml:space="preserve">
<g>
	<path style="fill:#010101;" d="M31.416,3.586c-0.781-0.781-2.062-0.781-2.844,0l-4.07,4.074C22.838,6.551,20.924,6,19.002,6
		c-2.562,0-5.152,0.977-7.072,2.93l-6,6c-3.422,3.418-3.844,8.703-1.273,12.582l-4.07,4.074c-0.781,0.781-0.781,2.047,0,2.828
		C0.977,34.805,1.488,35,2,35s1.023-0.195,1.414-0.586l4.07-4.074C9.152,31.449,11.078,32,13,32c2.525,0,5.119-0.977,7.072-2.93
		l5.984-6c3.422-3.418,3.844-8.703,1.273-12.582l4.086-4.074C32.197,5.633,32.197,4.367,31.416,3.586z M24.986,16
		c0,1.602-0.625,3.109-1.758,4.242l-5.984,6C16.104,27.375,14.568,28,13,28c-0.906,0-1.773-0.223-2.57-0.602l2.951-2.984
		c0.781-0.781,0.781-2.047,0-2.828c-0.748-0.781-2.014-0.781-2.795,0L7.602,24.57C7.219,23.777,7,22.91,7,22
		c0-1.602,0.625-3.109,1.758-4.242l5.967-6C15.857,10.625,17.4,10,19.002,10c0.906,0,1.766,0.223,2.562,0.602l-3.039,3.047
		c-0.781,0.781-0.781,2.047,0,2.828c0.391,0.391,0.898,0.586,1.414,0.586c0.508,0,1.016-0.195,1.406-0.586l3.039-3.047
		C24.768,14.223,24.986,15.09,24.986,16z"/>
</g>
</svg>
