<?xml version="1.0" encoding="iso-8859-1"?>
<!-- Generator: Adobe Illustrator 16.0.0, SVG Export Plug-In . SVG Version: 6.00 Build 0)  -->
<!DOCTYPE svg PUBLIC "-//W3C//DTD SVG 1.1//EN" "http://www.w3.org/Graphics/SVG/1.1/DTD/svg11.dtd">
<svg version="1.1" id="Layer_1" xmlns="http://www.w3.org/2000/svg" xmlns:xlink="http://www.w3.org/1999/xlink" x="0px" y="0px"
	 width="24.002px" height="43px" viewBox="0 0 24.002 43" style="enable-background:new 0 0 24.002 43;" xml:space="preserve">
<g>
	<path style="fill:#010101;" d="M14.002,3C8.494,3,4.006,7.484,4.006,13v2H0v14c0,3.305,2.695,6,5.998,6h12.004c3.312,0,6-2.695,6-6
		V13C24.002,7.484,19.518,3,14.002,3z M8.006,13c0-3.312,2.693-6,5.996-6c3.312,0,6,2.688,6,6v2H8.006V13z M18.002,31H5.998
		c-1.102,0-2-0.898-2-2V19h16.004v10C20.002,30.102,19.107,31,18.002,31z"/>
	<path style="fill:#010101;" d="M14.002,25c0,1.102-0.898,2-2,2c-1.107,0-1.998-0.898-1.998-2c0-1.109,0.891-2,1.998-2
		C13.104,23,14.002,23.891,14.002,25z"/>
</g>
</svg>
