<?xml version="1.0" encoding="iso-8859-1"?>
<!-- Generator: Adobe Illustrator 16.0.0, SVG Export Plug-In . SVG Version: 6.00 Build 0)  -->
<!DOCTYPE svg PUBLIC "-//W3C//DTD SVG 1.1//EN" "http://www.w3.org/Graphics/SVG/1.1/DTD/svg11.dtd">
<svg version="1.1" id="Layer_1" xmlns="http://www.w3.org/2000/svg" xmlns:xlink="http://www.w3.org/1999/xlink" x="0px" y="0px"
	 width="32.006px" height="43px" viewBox="0 0 32.006 43" style="enable-background:new 0 0 32.006 43;" xml:space="preserve">
<g>
	<path style="fill:#010101;" d="M0,7v3.906l7.398,3.473C9.07,11.326,12.275,9.232,16,9.232c3.74,0,6.955,2.109,8.623,5.18
		l7.383-3.494V7H0z"/>
	<polygon style="fill:#010101;" points="21.982,22.926 19.85,25.066 16,21.221 12.156,25.066 10.018,22.926 13.863,19.082 
		10.018,15.238 12.156,13.1 16,16.945 19.85,13.1 21.982,15.238 18.139,19.082 	"/>
	<path style="fill:#010101;" d="M25.771,18.295c0.023,0.264,0.078,0.518,0.078,0.787c0,5.441-4.406,9.852-9.85,9.852
		c-5.438,0-9.848-4.41-9.848-9.852c0-0.285,0.061-0.553,0.084-0.832L0,15.32V31h32.006V15.344L25.771,18.295z"/>
</g>
</svg>
