<?xml version="1.0" encoding="iso-8859-1"?>
<!-- Generator: Adobe Illustrator 16.0.0, SVG Export Plug-In . SVG Version: 6.00 Build 0)  -->
<!DOCTYPE svg PUBLIC "-//W3C//DTD SVG 1.1//EN" "http://www.w3.org/Graphics/SVG/1.1/DTD/svg11.dtd">
<svg version="1.1" id="Layer_1" xmlns="http://www.w3.org/2000/svg" xmlns:xlink="http://www.w3.org/1999/xlink" x="0px" y="0px"
	 width="20.002px" height="43px" viewBox="0 0 20.002 43" style="enable-background:new 0 0 20.002 43;" xml:space="preserve">
<g>
	<path style="fill:#010101;" d="M9.996,7c1.605,0,3.115,0.625,4.248,1.76c1.133,1.131,1.758,2.639,1.758,4.24
		s-0.625,3.109-1.734,4.213c-0.164,0.166-2.234,2.225-4.271,5.441c-2.02-3.211-4.082-5.262-4.238-5.414C4.625,16.109,4,14.602,4,13
		s0.625-3.109,1.758-4.242S8.365,7,9.996,7 M9.996,3C7.441,3,4.883,3.977,2.93,5.93c-3.906,3.904-3.906,10.236,0,14.141
		c0,0,7.066,6.93,7.066,14.93c0-8,7.076-14.93,7.076-14.93c3.907-3.904,3.907-10.236,0-14.141C15.119,3.977,12.557,3,9.996,3
		L9.996,3z"/>
	<path style="fill:#010101;" d="M12,13c0,1.105-0.895,2-2.004,2C8.861,15,8,14.105,8,13s0.861-2,1.996-2C11.105,11,12,11.895,12,13z
		"/>
</g>
</svg>
