<?xml version="1.0" encoding="iso-8859-1"?>
<!-- Generator: Adobe Illustrator 16.0.0, SVG Export Plug-In . SVG Version: 6.00 Build 0)  -->
<!DOCTYPE svg PUBLIC "-//W3C//DTD SVG 1.1//EN" "http://www.w3.org/Graphics/SVG/1.1/DTD/svg11.dtd">
<svg version="1.1" id="Layer_1" xmlns="http://www.w3.org/2000/svg" xmlns:xlink="http://www.w3.org/1999/xlink" x="0px" y="0px"
	 width="32.002px" height="43px" viewBox="0 0 32.002 43" style="enable-background:new 0 0 32.002 43;" xml:space="preserve">
<path style="fill:#010101;" d="M16,3C7.164,3,0,10.164,0,19s7.164,16,16,16c8.838,0,16.002-7.164,16.002-16S24.838,3,16,3z
	 M22.002,23v-2h-4v4h2L16,29l-4-4h2v-4h-4v2l-4-4l4-4v2h4v-4h-2l4-4l4.002,4h-2v4h4v-2l4,4L22.002,23z"/>
</svg>
