<?xml version="1.0" encoding="iso-8859-1"?>
<!-- Generator: Adobe Illustrator 16.0.0, SVG Export Plug-In . SVG Version: 6.00 Build 0)  -->
<!DOCTYPE svg PUBLIC "-//W3C//DTD SVG 1.1//EN" "http://www.w3.org/Graphics/SVG/1.1/DTD/svg11.dtd">
<svg version="1.1" id="Layer_1" xmlns="http://www.w3.org/2000/svg" xmlns:xlink="http://www.w3.org/1999/xlink" x="0px" y="0px"
	 width="16.002px" height="43px" viewBox="0 0 16.002 43" style="enable-background:new 0 0 16.002 43;" xml:space="preserve">
<g>
	<path style="fill:#010101;" d="M9.6,33c0,1.102-0.895,2-2,2s-2-0.898-2-2c0-1.109,0.895-2,2-2S9.6,31.891,9.6,33z"/>
	<path style="fill:#010101;" d="M7.676,28.977c-1.336,0-2.59-0.523-3.535-1.469c-0.945-1.004-1.465-2.258-1.465-3.594
		s0.52-2.59,1.465-3.473l6.689-6.688c0.754-0.758,1.172-1.762,1.172-2.828c0-1.07-0.418-2.074-1.172-2.828
		c-1.562-1.559-4.098-1.562-5.656,0C4.416,8.852,4,9.855,4,10.926H0c0-2.137,0.834-4.148,2.348-5.66
		c3.02-3.023,8.287-3.02,11.311,0.004c1.508,1.508,2.344,3.516,2.344,5.656c0,2.137-0.836,4.145-2.344,5.656l-6.689,6.625
		c-0.389,0.391-0.389,1.023,0,1.414c0.391,0.391,1.023,0.391,1.416,0c0.25-0.258,0.289-0.555,0.289-0.711h4
		c0,1.336-0.516,2.594-1.461,3.598C10.268,28.453,9.01,28.977,7.676,28.977L7.676,28.977z"/>
</g>
</svg>
