<?xml version="1.0" encoding="iso-8859-1"?>
<!-- Generator: Adobe Illustrator 16.0.0, SVG Export Plug-In . SVG Version: 6.00 Build 0)  -->
<!DOCTYPE svg PUBLIC "-//W3C//DTD SVG 1.1//EN" "http://www.w3.org/Graphics/SVG/1.1/DTD/svg11.dtd">
<svg version="1.1" id="Layer_1" xmlns="http://www.w3.org/2000/svg" xmlns:xlink="http://www.w3.org/1999/xlink" x="0px" y="0px"
	 width="32.002px" height="43px" viewBox="0 0 32.002 43" style="enable-background:new 0 0 32.002 43;" xml:space="preserve">
<g>
	<path style="fill:#010101;" d="M24.002,9C23.619,9,23.26,9.061,22.9,9.111C21.502,6.646,18.924,5,16,5
		c-2.988,0-5.566,1.666-6.941,4.1C8.707,9.053,8.355,9,8,9c-4.41,0-8,3.588-8,8s3.59,8,8,8h16.002c4.406,0,8-3.588,8-8
		S28.408,9,24.002,9z M24.002,21H8c-2.207,0-4-1.795-4-4c0-2.193,1.941-3.885,4.004-3.945c0.008,0.943,0.172,1.869,0.5,2.744
		l3.746-1.402C12.082,13.953,12,13.482,12,13c0-2.205,1.793-4,4-4c1.291,0,2.463,0.641,3.197,1.639C17.268,12.1,16,14.395,16,17
		h4.002c0-2.205,1.789-4,4-4c2.203,0,4,1.795,4,4S26.205,21,24.002,21z"/>
	<path style="fill:#010101;" d="M3.281,32.438c-0.75,0.75-1.969,0.75-2.719,0s-0.75-1.969,0-2.719S6,27,6,27
		S4.031,31.688,3.281,32.438z"/>
	<path style="fill:#010101;" d="M11.285,32.438c-0.75,0.75-1.965,0.75-2.719,0c-0.75-0.75-0.75-1.969,0-2.719
		C9.32,28.969,14.004,27,14.004,27S12.039,31.688,11.285,32.438z"/>
	<path style="fill:#010101;" d="M19.283,32.438c-0.75,0.75-1.969,0.75-2.719,0c-0.752-0.75-0.752-1.969,0-2.719
		c0.75-0.75,5.438-2.719,5.438-2.719S20.033,31.688,19.283,32.438z"/>
</g>
</svg>
