<?xml version="1.0" encoding="iso-8859-1"?>
<!-- Generator: Adobe Illustrator 16.0.0, SVG Export Plug-In . SVG Version: 6.00 Build 0)  -->
<!DOCTYPE svg PUBLIC "-//W3C//DTD SVG 1.1//EN" "http://www.w3.org/Graphics/SVG/1.1/DTD/svg11.dtd">
<svg version="1.1" id="Layer_1" xmlns="http://www.w3.org/2000/svg" xmlns:xlink="http://www.w3.org/1999/xlink" x="0px" y="0px"
	 width="32.002px" height="43px" viewBox="0 0 32.002 43" style="enable-background:new 0 0 32.002 43;" xml:space="preserve">
<g>
	<polygon style="fill:#010101;" points="32.002,7 0,7 0,3 32.002,3 32.002,7 	"/>
	<polygon style="fill:#010101;" points="20.002,15 0,15 0,11 20.002,11 20.002,15 	"/>
	<polygon style="fill:#010101;" points="32.002,23.086 0,23.086 0,19.086 32.002,19.086 32.002,23.086 	"/>
	<circle style="fill:#010101;" cx="2" cy="33" r="2"/>
	<path style="fill:#010101;" d="M12,33c0,1.105-0.898,2-2,2c-1.109,0-2.004-0.895-2.004-2S8.891,31,10,31C11.102,31,12,31.895,12,33
		z"/>
	<path style="fill:#010101;" d="M20.002,33c0,1.105-0.898,2-2,2C16.893,35,16,34.105,16,33s0.893-2,2.002-2
		C19.104,31,20.002,31.895,20.002,33z"/>
</g>
</svg>
