<?xml version="1.0" encoding="iso-8859-1"?>
<!-- Generator: Adobe Illustrator 16.0.0, SVG Export Plug-In . SVG Version: 6.00 Build 0)  -->
<!DOCTYPE svg PUBLIC "-//W3C//DTD SVG 1.1//EN" "http://www.w3.org/Graphics/SVG/1.1/DTD/svg11.dtd">
<svg version="1.1" id="Layer_1" xmlns="http://www.w3.org/2000/svg" xmlns:xlink="http://www.w3.org/1999/xlink" x="0px" y="0px"
	 width="28.002px" height="43px" viewBox="0 0 28.002 43" style="enable-background:new 0 0 28.002 43;" xml:space="preserve">
<g>
	<path style="fill:#010101;" d="M23.885,9.086l-2.82,2.832c1.891,1.891,2.938,4.406,2.938,7.082c0,5.516-4.484,10-10.002,10v-2l-4,4
		l4,4v-2c7.721,0,14.002-6.281,14.002-14C28.002,15.254,26.541,11.734,23.885,9.086z"/>
	<path style="fill:#010101;" d="M18.002,7L14,3v2C6.281,5,0,11.281,0,19c0,3.746,1.461,7.266,4.117,9.914l2.82-2.832
		C5.047,24.191,4,21.676,4,19C4,13.484,8.484,9,14,9v2L18.002,7z"/>
</g>
</svg>
