<?xml version="1.0" encoding="iso-8859-1"?>
<!-- Generator: Adobe Illustrator 16.0.0, SVG Export Plug-In . SVG Version: 6.00 Build 0)  -->
<!DOCTYPE svg PUBLIC "-//W3C//DTD SVG 1.1//EN" "http://www.w3.org/Graphics/SVG/1.1/DTD/svg11.dtd">
<svg version="1.1" id="Layer_1" xmlns="http://www.w3.org/2000/svg" xmlns:xlink="http://www.w3.org/1999/xlink" x="0px" y="0px"
	 width="32.002px" height="43px" viewBox="0 0 32.002 43" style="enable-background:new 0 0 32.002 43;" xml:space="preserve">
<path style="fill:#010101;" d="M16,3C7.164,3,0,10.164,0,19s7.164,16,16,16c8.838,0,16.002-7.164,16.002-16S24.838,3,16,3z M16,7
	c5.205,0,9.604,3.354,11.268,8H4.734C6.395,10.354,10.793,7,16,7z M16,21c-1.105,0-2-0.895-2-2s0.895-2,2-2
	c1.104,0,2.002,0.895,2.002,2S17.104,21,16,21z M4,19c5.465,0,9.891,5.266,9.984,11.797C8.328,29.828,4,24.926,4,19z M18.018,30.797
	C18.111,24.266,22.533,19,28.002,19C28.002,24.926,23.674,29.828,18.018,30.797z"/>
</svg>
