<?xml version="1.0" encoding="iso-8859-1"?>
<!-- Generator: Adobe Illustrator 16.0.0, SVG Export Plug-In . SVG Version: 6.00 Build 0)  -->
<!DOCTYPE svg PUBLIC "-//W3C//DTD SVG 1.1//EN" "http://www.w3.org/Graphics/SVG/1.1/DTD/svg11.dtd">
<svg version="1.1" id="Layer_1" xmlns="http://www.w3.org/2000/svg" xmlns:xlink="http://www.w3.org/1999/xlink" x="0px" y="0px"
	 width="31.994px" height="43px" viewBox="0 0 31.994 43" style="enable-background:new 0 0 31.994 43;" xml:space="preserve">
<g>
	<path style="fill:#010101;" d="M16,11c-4.422,0-8,3.582-8,8s3.578,8,8,8c4.416,0,8.002-3.582,8.002-8S20.416,11,16,11L16,11z"/>
	<path style="fill:#010101;" d="M18.002,5c0,1.105-0.898,2-2.002,2c-1.109,0-2-0.895-2-2s0.891-2,2-2
		C17.104,3,18.002,3.895,18.002,5z"/>
	<circle style="fill:#010101;" cx="6" cy="9" r="2"/>
	<path style="fill:#010101;" d="M2,16.998c1.102,0,2,0.895,2,2c0,1.107-0.898,2-2,2c-1.109,0-2-0.893-2-2
		C0,17.893,0.891,16.998,2,16.998z"/>
	<circle style="fill:#010101;" cx="6" cy="29" r="2"/>
	<path style="fill:#010101;" d="M14,33c0-1.109,0.891-2,2-2c1.111,0,2.002,0.891,2.002,2c0,1.105-0.891,2-2.002,2
		C14.891,35,14,34.105,14,33z"/>
	<path style="fill:#010101;" d="M24.596,30.414c-0.781-0.781-0.781-2.047,0-2.828s2.047-0.781,2.828,0
		c0.789,0.781,0.789,2.047,0,2.828C26.643,31.195,25.377,31.195,24.596,30.414z"/>
	<path style="fill:#010101;" d="M29.994,20.998c-1.094,0-1.992-0.895-1.992-1.998c0-1.109,0.898-2,2.008-2
		c1.094,0,2,0.893,1.984,1.998C32.01,20.105,31.104,21,29.994,20.998z"/>
	<path style="fill:#010101;" d="M27.424,10.416c-0.781,0.779-2.047,0.779-2.828,0c-0.781-0.785-0.781-2.047,0-2.83
		c0.781-0.779,2.047-0.781,2.828,0.002C28.213,8.369,28.213,9.637,27.424,10.416z"/>
</g>
</svg>
