<?xml version="1.0" encoding="iso-8859-1"?>
<!-- Generator: Adobe Illustrator 16.0.0, SVG Export Plug-In . SVG Version: 6.00 Build 0)  -->
<!DOCTYPE svg PUBLIC "-//W3C//DTD SVG 1.1//EN" "http://www.w3.org/Graphics/SVG/1.1/DTD/svg11.dtd">
<svg version="1.1" id="Layer_1" xmlns="http://www.w3.org/2000/svg" xmlns:xlink="http://www.w3.org/1999/xlink" x="0px" y="0px"
	 width="32.002px" height="43px" viewBox="0 0 32.002 43" style="enable-background:new 0 0 32.002 43;" xml:space="preserve">
<g>
	<path style="fill:#010101;" d="M28.158,6.718c-4.961-4.957-13.607-4.961-18.561,0L4,12.319V7H0v12.007h12v-3.971H6.977L12.43,9.55
		c3.445-3.449,9.455-3.449,12.9,0.004c1.719,1.723,2.672,4.012,2.672,6.482c0,2.408-0.953,4.697-2.672,6.424l-3.016,3.014
		l2.828,2.828l3.016-3.008c2.477-2.486,3.844-5.783,3.844-9.258C32.002,12.495,30.635,9.198,28.158,6.718z"/>
	<polygon style="fill:#010101;" points="18.447,35.001 15.621,32.165 18.447,29.337 21.275,32.165 	"/>
</g>
</svg>
