<?xml version="1.0" encoding="iso-8859-1"?>
<!-- Generator: Adobe Illustrator 16.0.0, SVG Export Plug-In . SVG Version: 6.00 Build 0)  -->
<!DOCTYPE svg PUBLIC "-//W3C//DTD SVG 1.1//EN" "http://www.w3.org/Graphics/SVG/1.1/DTD/svg11.dtd">
<svg version="1.1" id="Layer_1" xmlns="http://www.w3.org/2000/svg" xmlns:xlink="http://www.w3.org/1999/xlink" x="0px" y="0px"
	 width="24.002px" height="43px" viewBox="0 0 24.002 43" style="enable-background:new 0 0 24.002 43;" xml:space="preserve">
<path style="fill:#010101;" d="M14.002,3C8.488,3,4.008,7.484,4.008,13h3.996c0-3.309,2.688-6,5.998-6c3.305,0,6,2.691,6,6v2H0v14
	c0,3.309,2.695,6,6,6h12.002c3.305,0,6-2.691,6-6V13C24.002,7.484,19.51,3,14.002,3z M11.996,27c-1.102,0-2-0.895-2-2s0.898-2,2-2
	c1.107,0,1.998,0.895,1.998,2S13.104,27,11.996,27z"/>
</svg>
