<?xml version="1.0" encoding="iso-8859-1"?>
<!-- Generator: Adobe Illustrator 16.0.0, SVG Export Plug-In . SVG Version: 6.00 Build 0)  -->
<!DOCTYPE svg PUBLIC "-//W3C//DTD SVG 1.1//EN" "http://www.w3.org/Graphics/SVG/1.1/DTD/svg11.dtd">
<svg version="1.1" id="Layer_1" xmlns="http://www.w3.org/2000/svg" xmlns:xlink="http://www.w3.org/1999/xlink" x="0px" y="0px"
	 width="32.002px" height="43px" viewBox="0 0 32.002 43" style="enable-background:new 0 0 32.002 43;" xml:space="preserve">
<g>
	<g>
		<path style="fill:#010101;" d="M8,27c-4.418,0-8-3.582-8-8s3.582-8,8-8V27z"/>
	</g>
	<g>
		<polygon style="fill:#010101;" points="12,11 20.002,7 20.002,31 12,27 		"/>
	</g>
	<path style="fill:#010101;" d="M24.002,26.996v-4c0.336,0,0.672-0.043,1.008-0.125c1.75-0.445,2.992-2.039,2.992-3.871
		s-1.242-3.422-3.016-3.871c-0.312-0.078-0.648-0.121-0.984-0.121v-4c0.656,0,1.312,0.082,1.961,0.238
		c3.555,0.906,6.039,4.09,6.039,7.754c0,3.668-2.484,6.855-6.031,7.754C25.307,26.914,24.65,26.996,24.002,26.996L24.002,26.996z"/>
</g>
</svg>
