<?xml version="1.0" encoding="iso-8859-1"?>
<!-- Generator: Adobe Illustrator 16.0.0, SVG Export Plug-In . SVG Version: 6.00 Build 0)  -->
<!DOCTYPE svg PUBLIC "-//W3C//DTD SVG 1.1//EN" "http://www.w3.org/Graphics/SVG/1.1/DTD/svg11.dtd">
<svg version="1.1" id="Layer_1" xmlns="http://www.w3.org/2000/svg" xmlns:xlink="http://www.w3.org/1999/xlink" x="0px" y="0px"
	 width="32.002px" height="43px" viewBox="0 0 32.002 43" style="enable-background:new 0 0 32.002 43;" xml:space="preserve">
<path style="fill:#010101;" d="M31.604,8.643l-5.023,5.023h-5.25V8.334l4.961-4.959C25.564,3.154,24.799,3,24.002,3
	C19.58,3,16,6.584,16,11c0,1.232,0.299,2.385,0.799,3.43L0.781,30.445C0.301,30.93,0,31.594,0,32.336C0,33.805,1.191,35,2.668,35
	c0.738,0,1.406-0.297,1.883-0.781l16.021-16.018C21.611,18.697,22.768,19,24.002,19c4.414,0,8-3.584,8-8
	C32.002,10.174,31.838,9.393,31.604,8.643z"/>
</svg>
