<?xml version="1.0" encoding="iso-8859-1"?>
<!-- Generator: Adobe Illustrator 16.0.0, SVG Export Plug-In . SVG Version: 6.00 Build 0)  -->
<!DOCTYPE svg PUBLIC "-//W3C//DTD SVG 1.1//EN" "http://www.w3.org/Graphics/SVG/1.1/DTD/svg11.dtd">
<svg version="1.1" id="Layer_1" xmlns="http://www.w3.org/2000/svg" xmlns:xlink="http://www.w3.org/1999/xlink" x="0px" y="0px"
	 width="30.584px" height="43px" viewBox="0 0 30.584 43" style="enable-background:new 0 0 30.584 43;" xml:space="preserve">
<g>
	<g>
		<path style="fill:#010101;" d="M17.006,21.455c-0.549,0.211-1.133,0.355-1.756,0.355s-1.207-0.145-1.758-0.355L8.48,33.256
			c-0.127,0.305,0.041,0.555,0.371,0.555h2.799c0.33,0,0.666-0.262,0.744-0.582l0.672-3.418h4.377l0.664,3.355
			c0.078,0.32,0.414,0.582,0.742,0.582h2.805c0.328,0,0.492-0.25,0.359-0.551L17.006,21.455z M13.459,27.811l0.646-3.293
			c0.08-0.32,0.416-0.582,0.746-0.582h0.799c0.33,0,0.666,0.262,0.748,0.582l0.65,3.293H13.459z"/>
		<circle style="fill:#010101;" cx="15.249" cy="16.818" r="3.374"/>
	</g>
	<g>
		<defs>
			<polygon id="SVGID_1_" points="30.584,6.193 15.25,15.225 0,6.193 0,6.193 0,27.443 0,27.443 15.25,18.412 30.584,27.443 
				30.584,27.443 30.584,6.193 			"/>
		</defs>
		<clipPath id="SVGID_2_">
			<use xlink:href="#SVGID_1_"  style="overflow:visible;"/>
		</clipPath>
		<g style="clip-path:url(#SVGID_2_);">
			<path style="fill:#010101;" d="M15.25,24.963c-4.49,0-8.145-3.652-8.145-8.145s3.654-8.145,8.145-8.145s8.146,3.652,8.146,8.145
				S19.74,24.963,15.25,24.963z M15.25,10.674c-3.389,0-6.145,2.758-6.145,6.145s2.756,6.145,6.145,6.145s6.146-2.758,6.146-6.145
				S18.639,10.674,15.25,10.674z"/>
			<path style="fill:#010101;" d="M15.25,29.447c-6.963,0-12.629-5.664-12.629-12.629S8.287,4.189,15.25,4.189
				s12.631,5.664,12.631,12.629S22.213,29.447,15.25,29.447z M15.25,6.189c-5.861,0-10.629,4.77-10.629,10.629
				S9.389,27.447,15.25,27.447s10.631-4.77,10.631-10.629S21.111,6.189,15.25,6.189z"/>
		</g>
	</g>
</g>
</svg>
